<?xml version="1.0" standalone="no"?>
<!DOCTYPE svg PUBLIC "-//W3C//DTD SVG 1.1//EN" "http://www.w3.org/Graphics/SVG/1.1/DTD/svg11.dtd" >
<svg xmlns="http://www.w3.org/2000/svg">
<metadata>
This is a custom SVG webfont generated by Font Squirrel.
Copyright   :  2001 Apostrophic Lab All rights reserved infoapostrophiclabcom wwwapostrophiclabcom
Designer    : Apostrophe
Foundry URL : wwwapostrophiclabcom
</metadata>
<defs>
<font id="webfontwm70T4Ry" horiz-adv-x="1402" >
<font-face units-per-em="2048" ascent="1638" descent="-410" />
<missing-glyph horiz-adv-x="921" />
<glyph unicode=" "  horiz-adv-x="921" />
<glyph unicode="&#x09;" horiz-adv-x="921" />
<glyph unicode="&#xa0;" horiz-adv-x="921" />
<glyph unicode="!" horiz-adv-x="581" d="M102 0h377v377h-377v-377zM102 461h377v1145h-377v-1145zM172 70v237h238v-237h-238zM172 530v1006h238v-1006h-238zM252 150h78v77h-78v-77zM252 610h78v846h-78v-846z" />
<glyph unicode="&#x22;" horiz-adv-x="989" d="M102 1126h377v480h-377v-480zM172 1196v340h238v-340h-238zM252 1276h78v180h-78v-180zM512 1126h377v480h-377v-480zM582 1196v340h237v-340h-237zM662 1276h77v180h-77v-180z" />
<glyph unicode="#" horiz-adv-x="1810" d="M102 305h191l-62 -307h379l62 307h231l-61 -305h379l61 305h301v377h-225l45 233h305v377h-229l61 314h-377l-63 -314h-232l64 312h-379l-64 -312h-268v-377h193l-45 -233h-267v-377zM172 375v237h254l74 373h-209v238h256l63 311h236l-64 -311h375l64 313h235l-63 -313 h245v-238h-292l-74 -373h241v-237h-288l-62 -305h-235l59 305h-373l-61 -307h-236l62 307h-207zM252 455h223l-59 -308h71l62 308h536l-61 -305h74l61 305h275v77h-258l104 533h279v78h-265l64 313h-72l-63 -313h-539l64 311h-72l-66 -311h-239v-78h227l-106 -533h-240v-77z M565 532l105 533h536l-104 -533h-537zM662 612h374l74 373h-375zM748 682l45 233h231l-45 -233h-231z" />
<glyph unicode="$" horiz-adv-x="1196" d="M102 788l174 -174h441v-82h-473v-376h166v-154h376v154h134l174 174v487l-174 174h-441v88h477v377h-170v154h-376v-154h-134l-174 -174v-494zM172 817v436l133 133h174v154h238v-154h170v-237h-477v-227h481l133 -134v-430l-133 -133h-174v-153h-238v153h-166v238h473 v221h-481zM252 850l86 -86h528v-381h-473v-78h166v-153h78v153h219l88 86v365l-88 86h-526v387h477v78h-170v153h-78v-153h-221l-86 -86v-371z" />
<glyph unicode="%" horiz-adv-x="2027" d="M102 791l174 -175h437l-369 -616h387l199 330v-156l174 -174h647l174 174v649l-174 174h-422l363 607h-389l-205 -342v180l-174 172h-648l-174 -172v-651zM172 819v592l133 133h590l133 -133v-405l313 528h228l-363 -606h516l133 -133v-590l-133 -135h-589l-134 135v377 l-307 -512h-225l369 616h-531zM252 852l86 -86h610v612l-88 86h-522l-86 -86v-526zM330 844v542h540v-542h-540zM410 924h381v383h-381v-383zM479 993v244h242v-244h-242zM608 150h39l420 698h-2l362 606h-38l-441 -737v2zM1079 238l86 -88h525l86 88v524l-86 86h-611v-610z M1157 227v543h541v-543h-541zM1237 307h381v383h-381v-383zM1307 377v244h241v-244h-241z" />
<glyph unicode="&#x26;" horiz-adv-x="1566" d="M102 174l174 -174h1072v614h157v377h-157v312h-377v-312h-492v238h414v377h-617l-174 -174v-1258zM172 205v1198l133 133h518v-238h-413v-376h630v311h238v-311h158v-238h-158v-614h-973zM252 238l86 -88h860v614h158v78h-158v311h-78v-311h-790v536h413v78h-405l-86 -86 v-1132zM330 227v537h790v-537h-790zM410 307h630v377h-630v-377zM479 377v237h492v-237h-492z" />
<glyph unicode="'" horiz-adv-x="581" d="M102 1126h377v480h-377v-480zM172 1196v340h238v-340h-238zM252 1276h78v180h-78v-180z" />
<glyph unicode="(" horiz-adv-x="729" d="M96 20l174 -174h357v377h-154v1159h154v377h-357l-174 -174v-1565zM166 49v1507l133 134h258v-238h-154v-1298h154v-238h-258zM246 82l86 -86h145v78h-153v1458h153v78h-145l-86 -86v-1442z" />
<glyph unicode=")" horiz-adv-x="729" d="M94 -154h357l174 174v1565l-174 174h-357v-377h154v-1159h-154v-377zM164 -84v238h153v1298h-153v238h258l133 -134v-1507l-133 -133h-258zM244 -4h143l88 86v1442l-88 86h-143v-78h153v-1458h-153v-78z" />
<glyph unicode="*" horiz-adv-x="1730" d="M59 616h367l-254 -254l268 -266l242 242v-336h377v344l244 -244l266 269l-248 245h344v377h-328l238 238l-266 266l-250 -250v361h-377v-351l-250 246l-264 -266l244 -244h-353v-377zM129 686v238h451l-314 313l168 168l318 -318v451h237v-459l320 320l168 -168 l-308 -307h426v-238h-442l317 -317l-167 -166l-314 311v-442h-237v434l-312 -309l-168 168l324 321h-467zM209 766h582l-406 -401l55 -56l391 391v-548h78v555l394 -392l55 54l-400 397h558v78h-539l387 387l-55 55l-400 -399v571h-78v-563l-397 397l-55 -55l395 -393h-565 v-78z" />
<glyph unicode="+" horiz-adv-x="1710" d="M53 614h623v-614h377v614h606v377h-606v615h-377v-615h-623v-377zM123 684v238h622v614h238v-614h606v-238h-606v-614h-238v614h-622zM203 764h622v-614h78v614h606v78h-606v614h-78v-614h-622v-78z" />
<glyph unicode="," horiz-adv-x="581" d="M102 0h154v-203l223 223v357h-377v-377zM172 70v237h238v-258l-84 -84v105h-154zM252 150h78v77h-78v-77z" />
<glyph unicode="-" horiz-adv-x="794" d="M53 614h692v377h-692v-377zM123 684v238h553v-238h-553zM203 764h393v78h-393v-78z" />
<glyph unicode="." horiz-adv-x="581" d="M102 0h377v377h-377v-377zM172 70v237h238v-237h-238zM252 150h78v77h-78v-77z" />
<glyph unicode="/" horiz-adv-x="747" d="M31 0h379l319 1606h-377zM117 70l293 1466h235l-293 -1466h-235zM213 150h74l260 1306h-72z" />
<glyph unicode="0" horiz-adv-x="1400" d="M102 174l174 -174h848l174 174v1258l-174 174h-848l-174 -174v-1258zM172 205v1198l133 133h791l133 -133v-1198l-133 -135h-791zM252 238l86 -88h725l86 88v1132l-86 86h-725l-86 -86v-1132zM330 227v1151h741v-1151h-741zM410 307h581v991h-581v-991zM479 377v852h443 v-852h-443zM508 618h379v377h-379v-377zM578 688v238h239v-238h-239zM657 768h80v78h-80v-78z" />
<glyph unicode="1" horiz-adv-x="888" d="M102 1229h308v-1229h376v1432l-174 174h-510v-377zM172 1298v238h412l133 -133v-1333h-238v1228h-307zM252 1378h307v-1228h78v1220l-86 86h-299v-78z" />
<glyph unicode="2" horiz-adv-x="1400" d="M102 0h1188v377h-811v237h637l174 174v644l-174 174h-1014v-377h811v-238h-637l-174 -174v-817zM172 70v718l133 134h678v376h-811v238h915l134 -133v-586l-134 -133h-677v-377h811v-237h-1049zM252 150h889v77h-811v537h725l86 86v520l-86 86h-803v-78h811v-536h-725 l-86 -86v-606z" />
<glyph unicode="3" d="M102 614h824v-237h-820v-377h1022l175 174v490l-140 139l140 139v490l-175 174h-1022v-377h820v-238h-824v-377zM172 684v238h823v376h-819v238h924l133 -133v-430l-168 -170l168 -168v-430l-133 -135h-924v237h819v377h-823zM252 764h737l-39 39l39 39h-737v-78z M256 150h811l86 88v364l-78 76v-451h-819v-77zM256 1378h819v-450l78 78v364l-86 86h-811v-78z" />
<glyph unicode="4" d="M102 788l174 -174h650v-614h377v1606h-377v-615h-447v615h-377v-818zM172 817v719h238v-614h585v614h238v-1466h-238v614h-690zM252 850l86 -86h737v-614h78v1306h-78v-614h-745v614h-78v-606z" />
<glyph unicode="5" d="M102 0h1020l174 174v643l-174 174h-643v238h817v377h-1194v-818l174 -174h644v-237h-818v-377zM172 70v237h817v377h-684l-133 133v719h1055v-238h-817v-376h684l133 -134v-583l-133 -135h-922zM252 150h809l86 88v518l-86 86h-731v536h817v78h-895v-606l86 -86h731v-537 h-817v-77z" />
<glyph unicode="6" d="M102 174l174 -174h848l174 174v643l-174 174h-645v238h819v377h-1022l-174 -174v-1258zM172 205v1198l133 133h924v-238h-819v-376h686l133 -134v-583l-133 -135h-791zM252 238l86 -88h725l86 88v518l-86 86h-733v536h819v78h-811l-86 -86v-1132zM330 227v537h741v-537 h-741zM410 307h581v377h-581v-377zM479 377v237h443v-237h-443z" />
<glyph unicode="7" d="M102 1229l818 2v-1229h376v1432l-174 176l-1020 -4v-377zM172 1300v236l922 2l133 -133v-1333h-238v1231zM252 1380l817 2v-1230h78v1220l-86 86l-809 -2v-76z" />
<glyph unicode="8" d="M102 174l174 -174h854l175 174v490l-140 139l140 139v490l-175 174h-854l-174 -174v-490l140 -139l-140 -139v-490zM172 205v430l168 168l-168 170v430l133 133h797l133 -133v-430l-168 -170l168 -168v-430l-133 -135h-797zM252 238l86 -88h729l88 88v364l-78 76v-451 h-747v453l-78 -78v-364zM252 1006l78 -80v452h747v-450l78 78v364l-88 86h-729l-86 -86v-364zM410 307h587v377h-587v-377zM410 922h587v376h-587v-376zM414 764h577l-39 39l39 39h-577l39 -39zM479 377v237h449v-237h-449zM479 991v238h449v-238h-449z" />
<glyph unicode="9" horiz-adv-x="1400" d="M102 0h1020l174 174v1258l-174 174h-846l-174 -174v-644l174 -174h644v-237h-818v-377zM172 70v237h817v377h-684l-133 133v586l133 133h789l133 -133v-1198l-133 -135h-922zM252 150h809l86 88v1132l-86 86h-723l-86 -86v-520l86 -86h731v-537h-817v-77zM330 842v536 h739v-536h-739zM410 922h579v376h-579v-376zM479 991v238h441v-238h-441z" />
<glyph unicode=":" horiz-adv-x="581" d="M102 0h377v377h-377v-377zM102 922h377v376h-377v-376zM172 70v237h238v-237h-238zM172 991v238h238v-238h-238zM252 150h78v77h-78v-77zM252 1071h78v78h-78v-78z" />
<glyph unicode=";" horiz-adv-x="581" d="M102 0h154v-203l223 223v357h-377v-377zM102 922h377v376h-377v-376zM172 70v237h238v-258l-84 -84v105h-154zM172 991v238h238v-238h-238zM252 150h78v77h-78v-77zM252 1071h78v78h-78v-78z" />
<glyph unicode="&#x3c;" horiz-adv-x="954" d="M63 717l781 -656v510l-357 267l357 202v500l-781 -571v-252zM133 750v182l641 469v-320l-414 -235l414 -309v-324zM213 786l481 -403v113l-481 360v-70zM213 856l481 272v117l-481 -354v-35z" />
<glyph unicode="=" horiz-adv-x="1810" d="M102 305h1606v377h-1606v-377zM102 915h1606v377h-1606v-377zM172 375v237h1466v-237h-1466zM172 985v238h1466v-238h-1466zM252 455h1307v77h-1307v-77zM252 1065h1307v78h-1307v-78z" />
<glyph unicode="&#x3e;" horiz-adv-x="954" d="M102 61l781 656v252l-781 571v-500l357 -202l-357 -267v-510zM172 213v324l414 309l-414 235v320l641 -469v-182zM252 383l481 403v105l-481 354v-117l479 -272l-479 -360v-113z" />
<glyph unicode="?" horiz-adv-x="1196" d="M102 0h377v377h-377v-377zM102 461h377v153h441l174 174v644l-174 174h-818v-377h615v-238h-441l-174 -174v-356zM172 70v237h238v-237h-238zM172 530v258l133 134h481v376h-614v238h719l133 -133v-586l-133 -133h-481v-154h-238zM252 150h78v77h-78v-77zM252 610h78v154 h526l88 86v520l-88 86h-604v-78h614v-536h-528l-86 -86v-146z" />
<glyph unicode="@" horiz-adv-x="1705" d="M102 16l377 -258v1573h752v-231h-443l-174 -172v-752l174 -174h820v1532l-174 174h-1158l-174 -174v-1518zM172 53v1452l133 133h1100l133 -133v-1433h-721l-133 133v692l133 133h483v371h-890v-1510zM252 96l78 -53v1438h1050v-531h-530l-86 -86v-624l86 -88h608v1321 l-88 86h-1032l-86 -86v-1377zM842 231v641h538v-641h-538zM922 311h378v482h-378v-482zM991 381v342h240v-342h-240z" />
<glyph unicode="A" horiz-adv-x="1728" d="M68 0h376v614h840v-614h377v1432l-174 174h-1245l-174 -174v-1432zM137 70v1333l133 133h1188l133 -133v-1333h-237v614h-979v-614h-238zM217 150h78v614h1139v-614h77v1220l-86 86h-1122l-86 -86v-1220zM295 842v536h1139v-536h-1139zM375 922h979v376h-979v-376z M444 991v238h840v-238h-840z" />
<glyph unicode="B" horiz-adv-x="1798" d="M102 0h1420l174 174v490l-140 139l140 139v490l-174 174h-1420v-1606zM172 70v1466h1321l133 -133v-430l-168 -170l168 -168v-430l-133 -135h-1321zM252 150h1208l86 88v364l-78 78v-453h-1138v537h1054l-38 39l38 39h-1054v536h1138v-452l78 80v364l-86 86h-1208v-1306z M410 307h979v377h-979v-377zM410 922h979v376h-979v-376zM479 377v237h840v-237h-840zM479 991v238h840v-238h-840z" />
<glyph unicode="C" horiz-adv-x="1798" d="M102 174l174 -174h1420v377h-1217v852h1217v379l-1420 -2l-174 -174v-1258zM172 205v1198l133 133h1321v-238h-1216v-991h1216v-237h-1321zM252 238l86 -88h1208v77h-1216v1151h1216v78h-1208l-86 -86v-1132z" />
<glyph unicode="D" horiz-adv-x="1798" d="M102 0h1420l174 174v1258l-174 174h-1420v-1606zM172 70v1466h1321l133 -133v-1198l-133 -135h-1321zM252 150h1208l86 88v1132l-86 86h-1208v-1306zM330 227v1151h1138v-1151h-1138zM410 307h979v991h-979v-991zM479 377v852h840v-852h-840z" />
<glyph unicode="E" horiz-adv-x="1800" d="M102 174l174 -174h1420v377h-1217v237h1219v377h-1219v238h1217v377h-1420l-174 -174v-1258zM172 205v1198l133 133h1321v-238h-1216v-376h1218v-238h-1218v-377h1216v-237h-1321zM252 238l86 -88h1208v77h-1216v537h1218v78h-1218v536h1216v78h-1208l-86 -86v-1132z" />
<glyph unicode="F" horiz-adv-x="1800" d="M102 0h377v614h1219v377h-1219v238h1217v377h-1420l-174 -174v-1432zM172 70v1333l133 133h1321v-238h-1216v-376h1218v-238h-1218v-614h-238zM252 150h78v614h1218v78h-1218v536h1216v78h-1208l-86 -86v-1220z" />
<glyph unicode="G" horiz-adv-x="1656" d="M102 174l174 -174h1278v991h-835v-377h459v-237h-699v852h1075v377h-1278l-174 -174v-1258zM172 205v1198l133 133h1180v-238h-1075v-991h837v377h-459v238h697v-852h-1180zM252 238l86 -88h1067v692h-537v-78h459v-537h-997v1151h1075v78h-1067l-86 -86v-1132z" />
<glyph unicode="H" horiz-adv-x="1806" d="M102 0h377v614h848v-614h377v1606h-377v-615h-848v615h-377v-1606zM172 70v1466h238v-614h987v614h237v-1466h-237v614h-987v-614h-238zM252 150h78v614h1147v-614h77v1306h-77v-614h-1147v614h-78v-1306z" />
<glyph unicode="I" horiz-adv-x="581" d="M102 0h377v1606h-377v-1606zM172 70v1466h238v-1466h-238zM252 150h78v1306h-78v-1306z" />
<glyph unicode="J" horiz-adv-x="1353" d="M102 0h975l174 174v1432h-377v-1229h-772v-377zM172 70v237h772v1229h238v-1331l-133 -135h-877zM252 150h764l86 88v1218h-78v-1229h-772v-77z" />
<glyph unicode="K" horiz-adv-x="1806" d="M102 0h377v614h848v-614h377v664l-139 139l139 139v664h-377v-615h-848v615h-377v-1606zM172 70v1466h238v-614h987v614h237v-563l-168 -170l168 -168v-565h-237v614h-987v-614h-238zM252 150h78v614h1063l-39 39l39 39h-1063v614h-78v-1306zM1477 150h77v452l-77 78 v-530zM1477 928l77 78v450h-77v-528z" />
<glyph unicode="L" horiz-adv-x="1202" d="M102 174l174 -174h824v377h-621v1229h-377v-1432zM172 205v1331h238v-1229h620v-237h-725zM252 238l86 -88h612v77h-620v1229h-78v-1218z" />
<glyph unicode="M" horiz-adv-x="1806" d="M102 0h377v1229h234v-1229h377v1229h237v-1229h377v1432l-174 174h-1428v-1606zM172 70v1466h1329l133 -133v-1333h-237v1228h-377v-1228h-238v1228h-372v-1228h-238zM252 150h78v1228h532v-1228h78v1228h537v-1228h77v1220l-86 86h-1216v-1306z" />
<glyph unicode="N" horiz-adv-x="1806" d="M102 0h377v1229h848v-1233h377v1436l-174 174h-1428v-1606zM172 70v1466h1329l133 -133v-1337h-237v1232h-987v-1228h-238zM252 150h78v1228h1147v-1233h77v1225l-86 86h-1216v-1306z" />
<glyph unicode="O" horiz-adv-x="1800" d="M102 174l174 -174h1248l174 174v1258l-174 174h-1248l-174 -174v-1258zM172 205v1198l133 133h1190l133 -133v-1198l-133 -135h-1190zM252 238l86 -88h1124l86 88v1132l-86 86h-1124l-86 -86v-1132zM330 227v1151h1140v-1151h-1140zM410 307h981v991h-981v-991zM479 377 v852h842v-852h-842z" />
<glyph unicode="P" horiz-adv-x="1800" d="M102 0h377v614h1045l174 174v644l-174 174h-1422v-1606zM172 70v1466h1323l133 -133v-586l-133 -133h-1085v-614h-238zM252 150h78v614h1132l86 86v520l-86 86h-1210v-1306zM330 842v536h1140v-536h-1140zM410 922h981v376h-981v-376zM479 991v238h842v-238h-842z" />
<glyph unicode="Q" horiz-adv-x="1798" d="M102 174l174 -174h437v-301h377v301h432l174 174v1258l-174 174h-1246l-174 -174v-1258zM172 205v1198l133 133h1188l133 -133v-1198l-133 -135h-473v-301h-238v301h-477zM252 238l86 -88h524v-302h78v302h520l86 88v1132l-86 86h-1122l-86 -86v-1132zM330 227v1151h1138 v-1151h-1138zM410 307h979v991h-979v-991zM479 377v852h840v-852h-840z" />
<glyph unicode="R" horiz-adv-x="1800" d="M102 0h377v614h842v-614h377v664l-139 139l139 139v490l-174 174h-1422v-1606zM172 70v1466h1323l133 -133v-430l-168 -170l168 -168v-565h-237v614h-981v-614h-238zM252 150h78v614h1056l-38 39l38 39h-1056v536h1140v-452l78 80v364l-86 86h-1210v-1306zM410 922h981 v376h-981v-376zM479 991v238h842v-238h-842zM1470 150h78v452l-78 78v-530z" />
<glyph unicode="S" horiz-adv-x="1792" d="M102 0h1414l174 174v643l-174 174h-1037v238h1211v377h-1414l-174 -174v-644l174 -174h1037v-237h-1211v-377zM172 70v237h1210v377h-1077l-133 133v586l133 133h1315v-238h-1210v-376h1077l133 -134v-583l-133 -135h-1315zM252 150h1200l88 88v518l-88 86h-1122v536 h1210v78h-1202l-86 -86v-520l86 -86h1124v-537h-1210v-77z" />
<glyph unicode="T" horiz-adv-x="1806" d="M102 1229l621 2v-1229h377v1229h604v379l-1602 -4v-377zM172 1300v236l1462 2v-238h-604v-1228h-237v1231zM252 1380l620 2v-1230h78v1228h604v78l-1302 -2v-76z" />
<glyph unicode="U" horiz-adv-x="1804" d="M102 174l174 -174h1252l174 174v1432h-377v-1229h-846v1229h-377v-1432zM172 205v1331h238v-1229h985v1229h237v-1331l-133 -135h-1194zM252 238l86 -88h1128l86 88v1218h-77v-1229h-1145v1229h-78v-1218z" />
<glyph unicode="V" horiz-adv-x="1497" d="M102 0h1119l174 174v1432h-377v-1229h-539v1229h-377v-1606zM172 70v1466h238v-1229h677v1229h238v-1331l-133 -135h-1020zM252 150h905l88 88v1218h-78v-1229h-837v1229h-78v-1306z" />
<glyph unicode="W" horiz-adv-x="1808" d="M102 174l174 -174h1430v1606h-377v-1229h-235v1229h-377v-1229h-238v1229h-377v-1432zM172 205v1331h238v-1229h376v1229h238v-1229h375v1229h237v-1466h-1331zM252 238l86 -88h1218v1306h-77v-1229h-535v1229h-78v-1229h-536v1229h-78v-1218z" />
<glyph unicode="X" horiz-adv-x="1798" d="M102 0h377v614h840v-614h377v664l-140 139l140 139v664h-377v-615h-840v615h-377v-664l140 -139l-140 -139v-664zM172 70v565l168 168l-168 170v563h238v-614h979v614h237v-563l-168 -170l168 -168v-565h-237v614h-979v-614h-238zM252 150h78v530l-78 -78v-452zM252 1006 l78 -78v528h-78v-450zM414 764h970l-38 39l38 39h-970l39 -39zM1468 150h78v452l-78 78v-530zM1468 928l78 78v450h-78v-528z" />
<glyph unicode="Y" horiz-adv-x="1794" d="M102 788l174 -174h441v-614h377v614h424l174 174v818h-377v-615h-836v615h-377v-818zM172 817v719h238v-614h974v614h238v-719l-133 -133h-465v-614h-238v614h-481zM252 850l86 -86h528v-614h78v614h510l88 86v606h-78v-614h-1134v614h-78v-606z" />
<glyph unicode="Z" horiz-adv-x="1800" d="M102 0h1596v377h-1219v237h1045l174 174v818h-1596v-377h1219v-238h-1045l-174 -174v-817zM172 70v718l133 134h1086v376h-1219v238h1456v-719l-133 -133h-1085v-377h1218v-237h-1456zM252 150h1296v77h-1218v537h1132l86 86v606h-1296v-78h1218v-536h-1132l-86 -86v-606 z" />
<glyph unicode="[" horiz-adv-x="735" d="M102 -154h531v377h-154v1159h154v377h-531v-1913zM172 -84v1774h391v-238h-153v-1298h153v-238h-391zM252 -4h231v78h-153v1458h153v78h-231v-1614z" />
<glyph unicode="\" horiz-adv-x="751" d="M23 1606l321 -1606h379l-322 1606h-378zM109 1536h235l293 -1466h-236zM207 1456l260 -1306h72l-260 1306h-72z" />
<glyph unicode="]" horiz-adv-x="735" d="M102 -154h531v1913h-531v-377h154v-1159h-154v-377zM172 -84v238h154v1298h-154v238h391v-1774h-391zM252 -4h231v1614h-231v-78h154v-1458h-154v-78z" />
<glyph unicode="^" horiz-adv-x="1021" d="M29 1149l268 -266l215 217l217 -217l266 266l-360 360h-246zM129 1149l289 291h188l291 -291l-168 -168l-217 217l-215 -217zM242 1149l55 -53l215 217l217 -217l55 53l-211 211h-122z" />
<glyph unicode="_" horiz-adv-x="1298" d="M0 70v-377h1298v377h-1298zM70 0h1159v-238h-1159v238zM150 -80v-78h999v78h-999z" />
<glyph unicode="`" horiz-adv-x="1429" d="M473 1911l279 -283l202 203l-276 283zM571 1909l105 104l180 -182l-104 -105z" />
<glyph unicode="a" d="M102 0h377v614h441v-614h376v1432l-176 174h-844l-174 -174v-1432zM172 70v1333l133 133h787l135 -133v-1333h-238v614h-579v-614h-238zM252 150h78v614h739v-614h78v1218l-88 88h-721l-86 -86v-1220zM330 842v536h739v-536h-739zM410 922h579v376h-579v-376zM479 991 v238h441v-238h-441z" />
<glyph unicode="b" d="M102 0h1022l174 174v490l-139 139l139 139v490l-174 174h-1022v-1606zM172 70v1466h924l133 -133v-430l-168 -170l168 -168v-430l-133 -135h-924zM252 150h811l86 88v364l-78 76v-451h-741v537h655l-39 39l39 39h-655v536h741v-450l78 78v364l-86 86h-811v-1306zM410 307 h581v377h-581v-377zM410 922h581v376h-581v-376zM479 377v237h443v-237h-443zM479 991v238h443v-238h-443z" />
<glyph unicode="c" d="M102 174l174 -174h1020v377h-817v852h817v377h-1020l-174 -174v-1258zM172 205v1198l133 133h922v-238h-817v-991h817v-237h-922zM252 238l86 -88h809v77h-817v1151h817v78h-809l-86 -86v-1132z" />
<glyph unicode="d" horiz-adv-x="1406" d="M102 0h1028l175 174v1258l-175 174h-1028v-1606zM172 70v1466h930l133 -133v-1198l-133 -135h-930zM252 150h815l88 88v1132l-88 86h-815v-1306zM330 227v1151h747v-1151h-747zM410 307h587v991h-587v-991zM479 377v852h449v-852h-449z" />
<glyph unicode="e" horiz-adv-x="1400" d="M102 174l174 -174h1016v377h-813v237h815v377h-815v238h813v377h-1016l-174 -174v-1258zM172 205v1198l133 133h918v-238h-813v-376h815v-238h-815v-377h813v-237h-918zM252 238l86 -88h805v77h-813v537h815v78h-815v536h813v78h-805l-86 -86v-1132z" />
<glyph unicode="f" horiz-adv-x="1400" d="M102 0h377v614h811v377h-811v238h809v381l-1012 -4l-174 -174v-1432zM172 70v1333l133 133l914 2v-240h-809v-376h811v-238h-811v-614h-238zM252 150h78v614h811v78h-811v536h809v80l-801 -2l-86 -86v-1220z" />
<glyph unicode="g" horiz-adv-x="1400" d="M102 174l174 -174h1016v991h-626v-377h249v-237h-436v852h813v377h-1016l-174 -174v-1258zM172 205v1198l133 133h918v-238h-813v-991h575v377h-250v238h488v-852h-918zM252 238l86 -88h805v692h-328v-78h250v-537h-735v1151h813v78h-805l-86 -86v-1132z" />
<glyph unicode="h" horiz-adv-x="1406" d="M102 0h377v614h434v-614h377v1606h-377v-615h-434v615h-377v-1606zM172 70v1466h238v-614h573v614h238v-1466h-238v614h-573v-614h-238zM252 150h78v614h733v-614h78v1306h-78v-614h-733v614h-78v-1306z" />
<glyph unicode="i" horiz-adv-x="581" d="M102 0h377v1606h-377v-1606zM172 70v1466h238v-1466h-238zM252 150h78v1306h-78v-1306z" />
<glyph unicode="j" horiz-adv-x="991" d="M102 0h605l174 174v1432h-377v-1229h-402v-377zM172 70v237h401v1229h238v-1331l-133 -135h-506zM252 150h391l88 88v1218h-78v-1229h-401v-77z" />
<glyph unicode="k" d="M102 0h377v614h441v-616h376v666l-139 139l139 139v662h-376v-613h-441v615h-377v-1606zM172 70v1466h238v-614h579v612h238v-561l-168 -170l168 -168v-567h-238v616h-579v-614h-238zM252 150h78v614h653l-39 39l39 39h-653v614h-78v-1306zM1069 147h78v455l-78 76v-531z M1069 928l78 78v448h-78v-526z" />
<glyph unicode="l" horiz-adv-x="989" d="M102 174l174 -174h603v377h-400v1229h-377v-1432zM172 205v1331h238v-1229h399v-237h-504zM252 238l86 -88h391v77h-399v1229h-78v-1218z" />
<glyph unicode="m" horiz-adv-x="1607" d="M102 0h377v1229h137v-1229h377v1229h135v-1229h377v1432l-174 174h-1229v-1606zM172 70v1466h1131l133 -133v-1333h-238v1228h-274v-1228h-238v1228h-276v-1228h-238zM252 150h78v1228h436v-1228h78v1228h434v-1228h78v1220l-86 86h-1018v-1306z" />
<glyph unicode="n" d="M102 0h377v1229h443v-1229l376 -2v1434l-174 174h-1022v-1606zM172 70v1466h924l133 -133v-1333h-238v1228h-581v-1228h-238zM252 150h78v1228h741v-1228h78v1220l-86 86h-811v-1306z" />
<glyph unicode="o" d="M102 174l174 -174h850l174 174v1258l-174 174h-850l-174 -174v-1258zM172 205v1198l133 133h793l133 -133v-1198l-133 -135h-793zM252 238l86 -88h727l86 88v1132l-86 86h-727l-86 -86v-1132zM330 227v1151h743v-1151h-743zM410 307h583v991h-583v-991zM479 377v852h445 v-852h-445z" />
<glyph unicode="p" horiz-adv-x="1400" d="M102 0h377v614h643l174 174v644l-174 174h-1020v-1606zM172 70v1466h922l133 -133v-586l-133 -133h-684v-614h-238zM252 150h78v614h731l86 86v520l-86 86h-809v-1306zM330 842v536h739v-536h-739zM410 922h579v376h-579v-376zM479 991v238h441v-238h-441z" />
<glyph unicode="q" horiz-adv-x="1404" d="M102 174l174 -174h246v-301h377v301h227l174 174v1258l-174 174h-850l-174 -174v-1258zM172 205v1198l133 133h793l133 -133v-1198l-133 -135h-269v-301h-237v301h-287zM252 238l86 -88h334v-302h78v302h315l86 88v1132l-86 86h-727l-86 -86v-1132zM330 227v1151h743 v-1151h-743zM410 307h583v991h-583v-991zM479 377v852h445v-852h-445z" />
<glyph unicode="r" horiz-adv-x="1400" d="M102 0h377v614h443v-614h376v664l-139 139l139 139v490l-174 174h-1022v-1606zM172 70v1466h924l133 -133v-430l-168 -170l168 -168v-565h-238v614h-581v-614h-238zM252 150h78v614h655l-39 39l39 39h-655v536h741v-450l78 78v364l-86 86h-811v-1306zM410 922h581v376 h-581v-376zM479 991v238h443v-238h-443zM1071 150h78v452l-78 76v-528z" />
<glyph unicode="s" horiz-adv-x="1400" d="M102 0h1016l174 174v643l-174 174h-639v238h813v377h-1016l-174 -174v-644l174 -174h639v-237h-813v-377zM172 70v237h813v377h-680l-133 133v586l133 133h918v-238h-813v-376h680l133 -134v-583l-133 -135h-918zM252 150h805l86 88v518l-86 86h-727v536h813v78h-805 l-86 -86v-520l86 -86h727v-537h-813v-77z" />
<glyph unicode="t" d="M102 1229h416v-1229h377v1229h399v381l-1192 -4v-377zM172 1298v238l1053 2v-240h-400v-1228h-237v1228h-416zM252 1378h416v-1228h77v1228h400v80l-893 -2v-78z" />
<glyph unicode="u" horiz-adv-x="1400" d="M102 174l174 -174h852l175 174v1432h-377v-1229h-447v1229h-377v-1432zM172 205v1331h238v-1229h585v1229h238v-1331l-133 -135h-795zM252 238l86 -88h729l86 88v1218h-78v-1229h-745v1229h-78v-1218z" />
<glyph unicode="v" horiz-adv-x="1296" d="M102 0h908l174 174v1432h-377v-1229h-328v1229h-377v-1606zM172 70v1466h238v-1229h467v1229h237v-1331l-133 -135h-809zM252 150h696l86 88v1218h-78v-1229h-626v1229h-78v-1306z" />
<glyph unicode="w" horiz-adv-x="1613" d="M102 174l174 -174h1231v1606h-377v-1229h-135v1229h-377v-1229h-139v1229h-377v-1432zM172 205v1331h238v-1229h278v1229h238v-1229h274v1229h238v-1466h-1133zM252 238l86 -88h1020v1306h-78v-1229h-434v1229h-78v-1229h-438v1229h-78v-1218z" />
<glyph unicode="x" d="M102 0h377v614h447v-614h377v664l-140 139l140 139v664h-377v-615h-447v615h-377v-664l140 -139l-140 -139v-664zM172 70v565l168 168l-168 170v563h238v-614h585v614h238v-563l-168 -170l168 -168v-565h-238v614h-585v-614h-238zM252 150h78v530l-78 -78v-452zM252 1006 l78 -78v528h-78v-450zM414 764h575l-39 39l39 39h-575l39 -39zM1075 150h78v452l-78 76v-528zM1075 928l78 78v450h-78v-528z" />
<glyph unicode="y" d="M102 788l174 -174h234v-614h377v614h243l175 174v818h-377v-615h-449v615h-377v-818zM172 817v719h238v-614h587v614h238v-719l-133 -133h-285v-614h-237v614h-275zM252 850l86 -86h321v-614h78v614h330l88 86v606h-78v-614h-747v614h-78v-606z" />
<glyph unicode="z" d="M102 0h1196v377h-819v237h645l174 174v818h-1196v-377h820v-238h-646l-174 -174v-817zM172 70v718l133 134h686v376h-819v238h1057v-719l-133 -133h-686v-377h819v-237h-1057zM252 150h897v77h-819v537h733l86 86v606h-897v-78h819v-536h-733l-86 -86v-606z" />
<glyph unicode="{" horiz-adv-x="903" d="M102 803l168 -168v-615l174 -174h359v377h-156v441l-137 139l137 139v440h156v377h-359l-174 -174v-612zM201 803l141 139v614l131 134h258v-238h-153v-479l-168 -170l168 -168v-481h153v-238h-258l-131 133v615zM422 82l86 -86h143v78h-153v528l-76 78v-598zM422 928 l76 78v526h153v78h-143l-86 -86v-596z" />
<glyph unicode="|" horiz-adv-x="581" d="M102 -209h377v2019h-377v-2019zM172 -139v1880h238v-1880h-238zM252 -59h78v1720h-78v-1720z" />
<glyph unicode="}" horiz-adv-x="903" d="M102 -154h357l174 174v615l168 168l-168 170v612l-174 174h-357v-377h154v-440l139 -139l-139 -139v-441h-154v-377zM172 -84v238h154v481l168 168l-168 170v479h-154v238h258l133 -134v-614l139 -139l-139 -139v-615l-133 -133h-258zM252 -4h145l86 86v596l-77 -76v-528 h-154v-78zM252 1532h154v-526l77 -78v596l-86 86h-145v-78z" />
<glyph unicode="~" horiz-adv-x="1335" d="M29 1257l360 -362h246l201 201l219 -215l266 266l-363 360h-245l-201 -200l-215 217zM129 1255l166 168l215 -217l231 232h189l291 -291l-168 -168l-217 215l-230 -229h-188zM242 1255l209 -211h122l263 265l217 -215l55 53l-211 211h-123l-264 -264l-215 217z" />
<glyph unicode="&#xa1;" horiz-adv-x="581" d="M102 -307h377v1145h-377v-1145zM102 922h377v376h-377v-376zM172 -238v1006h238v-1006h-238zM172 991v238h238v-238h-238zM252 -158h78v846h-78v-846zM252 1071h78v78h-78v-78z" />
<glyph unicode="&#xa2;" horiz-adv-x="1085" d="M102 332l160 -176h148v-154h376v154h211v376h-518v547h516v377h-209v154h-376v-154h-134l-174 -174v-950zM172 358v895l133 133h174v154h238v-154h209v-237h-516v-686h518v-238h-211v-153h-238v153h-184zM252 389l78 -84h229v-153h78v153h211v78h-518v846h516v78h-209 v153h-78v-153h-221l-86 -86v-832z" />
<glyph unicode="&#xa3;" horiz-adv-x="1261" d="M63 401h205v-26h-202v-377h1136v377h-557v26h307v377h-307v47h307v377h-307v27h459v377h-662l-174 -174v-230h-205v-377h205v-47h-205v-377zM133 471v238h205v186h-205v238h205v270l133 133h563v-238h-459v-165h308v-238h-308v-186h308v-238h-308v-166h558v-237h-998v237 h203v166h-205zM213 551h205v-326h-203v-78h838v78h-557v326h307v78h-307v346h307v78h-307v325h458v78h-450l-86 -86v-317h-205v-78h205v-346h-205v-78z" />
<glyph unicode="&#xa4;" horiz-adv-x="1198" d="M76 401h129v-213l164 -190h770v377h-557v26h383v377h-383v47h383v377h-383v27h555v377h-758l-174 -174v-230h-129v-377h129v-47h-129v-377zM145 471v238h129v186h-129v238h129v270l134 133h659v-238h-555v-165h383v-238h-383v-186h383v-238h-383v-166h557v-237h-668 l-127 147v256h-129zM225 551h129v-307l82 -97h553v78h-557v326h383v78h-383v346h383v78h-383v325h555v78h-547l-86 -86v-317h-129v-78h129v-346h-129v-78z" />
<glyph unicode="&#xa5;" d="M102 893l174 -174h234v-137h-406v-377h406v-205h377v205h407v377h-407v137h243l175 174v713h-377v-510h-449v510h-377v-713zM172 922v614h238v-510h587v510h238v-614l-133 -134h-285v-276h408v-238h-408v-204h-237v204h-406v238h406v276h-275zM252 954l86 -86h321v-436 h-405v-78h405v-204h78v204h408v78h-408v436h330l88 86v502h-78v-510h-747v510h-78v-502z" />
<glyph unicode="&#xa6;" horiz-adv-x="581" d="M102 -209h377v893h-377v-893zM102 1024h377v786h-377v-786zM172 -139v753h238v-753h-238zM172 1094v647h238v-647h-238zM252 -59h78v594h-78v-594zM252 1174h78v487h-78v-487z" />
<glyph unicode="&#xa7;" horiz-adv-x="1400" d="M102 70v-377h1016l174 174v1057l-174 174h-639v133h813v377h-1016l-174 -174v-1057l174 -174h639v-133h-813zM172 0h813v272h-680l-133 134v999l133 133h918v-238h-813v-272h680l133 -133v-999l-133 -134h-918v238zM252 -80v-78h805l86 86v934l-86 86h-727v432h813v78 h-805l-86 -86v-934l86 -86h727v-432h-813zM330 430v432h735v-432h-735zM410 510h575v272h-575v-272zM479 580v133h436v-133h-436z" />
<glyph unicode="&#xa8;" horiz-adv-x="1802" d="M414 1638h377v377h-377v-377zM483 1708v238h238v-238h-238zM563 1788h78v78h-78v-78zM1012 1638h377v377h-377v-377zM1081 1708v238h238v-238h-238zM1161 1788h78v78h-78v-78z" />
<glyph unicode="&#xa9;" horiz-adv-x="1800" d="M102 174l174 -174h1248l174 174v1258l-174 174h-1248l-174 -174v-1258zM172 205v1198l133 133h1190l133 -133v-1198l-133 -135h-1190zM252 238l86 -88h1124l86 88v1132l-86 86h-1124l-86 -86v-1132zM330 227v1151h1140v-1151h-1140zM410 307h981v991h-981v-991zM479 377 v852h842v-852h-842zM522 557l174 -174h586v377h-383v82h383v377h-586l-174 -175v-487zM592 588v428l133 133h487v-238h-383v-221h383v-237h-487zM672 621l86 -89h375v78h-383v381h383v78h-375l-86 -86v-362z" />
<glyph unicode="&#xaa;" horiz-adv-x="1812" d="M102 174l174 -174h1260l174 174v1258l-174 174h-1260l-174 -174v-1258zM172 205v1198l133 133h1202l133 -133v-1198l-133 -135h-1202zM252 238l86 -88h1137l86 88v1132l-86 86h-1137l-86 -86v-1132zM330 227v1151h1153v-1151h-1153zM410 307h993v991h-993v-991zM479 377 v852h854v-852h-854zM717 614l379 2v379l-379 -4v-377zM786 684v240h240v-238zM866 764l80 2v78h-80v-80z" />
<glyph unicode="&#xab;" horiz-adv-x="1337" d="M74 686l358 -360l268 266l-217 217l217 217l-266 266l-360 -360v-246zM143 717v186l291 291l166 -168l-215 -217l215 -217l-166 -168zM223 750l211 -211l53 53l-217 217l217 217l-53 55l-211 -211v-120zM645 688l361 -360l266 266l-217 217l217 217l-266 266l-361 -360 v-246zM715 717v188l291 291l168 -168l-218 -217l218 -217l-168 -168zM795 752l211 -211l55 53l-217 217l217 217l-55 55l-211 -211v-120z" />
<glyph unicode="&#xac;" horiz-adv-x="2093" d="M63 1358h99v115h227v-625h-278v-813h1642q113 0 191 51q90 57 90 164q0 158 -164 209q113 55 112 176q0 72 -38 119h4v280h-93v-186h-589v377h-461v248h106v96h-831zM207 129v625h278v719h215v-347h465v-276h-106v-96h6l149 -373h-385l-41 -92h461l64 -160h-1106z M700 496h123v354h-123v-354zM1161 754h531q188 0 188 -123q0 -59 -59 -96q-47 -31 -111 -31h-225v-98h203q242 0 241 -142q0 -137 -241 -137h-267zM1350 1126h305v-102h96v299h-96v-102h-205v249h387l14 -182h93v279h-594v-441z" />
<glyph unicode="&#xad;" horiz-adv-x="794" d="M53 614h692v377h-692v-377zM123 684v238h553v-238h-553zM203 764h393v78h-393v-78z" />
<glyph unicode="&#xae;" horiz-adv-x="1800" d="M102 174l174 -174h1248l174 174v1258l-174 174h-1248l-174 -174v-1258zM172 205v1198l133 133h1190l133 -133v-1198l-133 -135h-1190zM252 238l86 -88h1124l86 88v1132l-86 86h-1124l-86 -86v-1132zM330 227v1151h1140v-1151h-1140zM410 307h981v991h-981v-991zM479 377 v852h842v-852h-842zM522 383h377v459h383v377h-586l-174 -175v-661zM592 453v563l133 133h487v-238h-383v-458h-237zM672 532h78v459h383v78h-375l-86 -86v-451z" />
<glyph unicode="&#xaf;" horiz-adv-x="1400" d="M354 1638h693v377h-693v-377zM424 1708v238h553v-238h-553zM504 1788h393v78h-393v-78z" />
<glyph unicode="&#xb0;" horiz-adv-x="937" d="M106 1059l209 -133h301l213 133v416l-208 131h-302l-213 -131v-416zM176 1100v336l164 100h258l162 -100v-336l-164 -105h-260zM246 1137v258l131 88h178l135 -86v-262l-137 -82h-174zM256 1143l102 -68h215l107 68v248l-105 65h-213l-106 -65v-248zM326 1182l75 -49h129 l80 49v172l-78 49h-131l-75 -51v-170zM395 1221v94l27 18h90l29 -18v-94l-29 -19h-90z" />
<glyph unicode="&#xb1;" horiz-adv-x="1812" d="M102 0h1606v377h-1606v-377zM104 821h623v-418h377v418h606v377h-606v408h-377v-408h-623v-377zM172 70v237h1466v-237h-1466zM174 891v237h623v408h237v-408h606v-237h-606v-418h-237v418h-623zM252 150h1307v77h-1307v-77zM254 971h623v-418h77v418h607v78h-607v407 h-77v-407h-623v-78z" />
<glyph unicode="&#xb2;" horiz-adv-x="1800" d="M102 0h1596v377h-1219v237h1045l174 174v644l-174 174h-1422v-377h1219v-238h-1045l-174 -174v-817zM172 70v718l133 134h1086v376h-1219v238h1323l133 -133v-586l-133 -133h-1085v-377h1218v-237h-1456zM252 150h1296v77h-1218v537h1132l86 86v520l-86 86h-1210v-78 h1218v-536h-1132l-86 -86v-606z" />
<glyph unicode="&#xb3;" horiz-adv-x="1810" d="M102 614h1229v-237h-1225v-377h1428l174 174v490l-139 139l139 139v490l-174 174h-1428v-377h1225v-238h-1229v-377zM172 684v238h1229v376h-1225v238h1329l133 -133v-430l-168 -170l168 -168v-430l-133 -135h-1329v237h1225v377h-1229zM252 764h1145l-39 39l39 39h-1145 v-78zM256 150h1217l86 88v364l-78 78v-453h-1225v-77zM256 1378h1225v-450l78 78v364l-86 86h-1217v-78z" />
<glyph unicode="&#xb4;" horiz-adv-x="1429" d="M473 1831l205 -203l276 283l-202 203zM571 1831l181 182l104 -104l-180 -183z" />
<glyph unicode="&#xb5;" horiz-adv-x="1810" d="M102 788l174 -174h1055v-614h377v1606h-377v-615h-852v615h-377v-818zM172 817v719h238v-614h991v614h237v-1466h-237v614h-1096zM252 850l86 -86h1143v-614h78v1306h-78v-614h-1151v614h-78v-606z" />
<glyph unicode="&#xb6;" horiz-adv-x="1400" d="M100 584l174 -174h138v-715h376v1323h130v-1321h376v1704h-1020l-174 -172v-645zM170 612v586l133 133h922v-1564h-238v1320h-268v-1323h-238v715h-178zM250 645l86 -86h225v-715h78v1323h428v-1321h78v1405h-809l-86 -86v-520z" />
<glyph unicode="&#xb7;" horiz-adv-x="1804" d="M102 0h1426l174 174v643l-174 174h-1049v238h1223v377h-1600v-818l174 -174h1049v-237h-1223v-377zM172 70v237h1223v377h-1090l-133 133v719h1460v-238h-1222v-376h1089l133 -134v-583l-133 -135h-1327zM252 150h1214l86 88v518l-86 86h-1136v536h1222v78h-1300v-606 l86 -86h1137v-537h-1223v-77z" />
<glyph unicode="&#x2219;" horiz-adv-x="1804" d="M102 0h1426l174 174v643l-174 174h-1049v238h1223v377h-1600v-818l174 -174h1049v-237h-1223v-377zM172 70v237h1223v377h-1090l-133 133v719h1460v-238h-1222v-376h1089l133 -134v-583l-133 -135h-1327zM252 150h1214l86 88v518l-86 86h-1136v536h1222v78h-1300v-606 l86 -86h1137v-537h-1223v-77z" />
<glyph unicode="&#xb8;" horiz-adv-x="1400" d="M512 170v-479h377v479h-377zM582 100h237v-340h-237v340zM662 20v-180h77v180h-77z" />
<glyph unicode="&#xb9;" horiz-adv-x="1798" d="M102 174l174 -174h1246l174 174v643l-174 174h-1043v238h1217v377h-1420l-174 -174v-1258zM172 205v1198l133 133h1321v-238h-1216v-376h1083l133 -134v-583l-133 -135h-1188zM252 238l86 -88h1122l86 88v518l-86 86h-1130v536h1216v78h-1208l-86 -86v-1132zM330 227v537 h1138v-537h-1138zM410 307h979v377h-979v-377zM479 377v237h840v-237h-840z" />
<glyph unicode="&#xba;" horiz-adv-x="1193" d="M102 678l174 -174h648l174 174v649l-174 174h-648l-174 -174v-649zM106 96h984v377h-984v-377zM172 707v591l133 134h590l133 -134v-591l-133 -134h-590zM176 166v237h844v-237h-844zM252 739l86 -86h522l88 86v527l-88 86h-522l-86 -86v-527zM256 246h684v78h-684v-78z M330 731v543h540v-543h-540zM410 811h381v383h-381v-383zM479 881v243h242v-243h-242z" />
<glyph unicode="&#xbb;" horiz-adv-x="1337" d="M74 594l268 -266l358 360v246l-358 360l-268 -266l217 -217zM172 594l217 217l-217 217l170 168l289 -291v-188l-291 -291zM287 594l53 -53l211 211v120l-209 211l-55 -55l217 -217zM645 592l266 -266l363 360v246l-363 360l-266 -266l217 -217zM743 592l218 217 l-218 217l168 168l291 -291v-186l-291 -293zM856 592l55 -53l211 211v120l-211 211l-55 -55l217 -217z" />
<glyph unicode="&#xbc;" horiz-adv-x="1787" d="M102 1229l1207 2v-1229h377v1432l-175 176l-1409 -4v-377zM172 1300v236l1311 2l133 -133v-1333h-238v1231zM252 1380l1206 2v-1230h78v1220l-86 86l-1198 -2v-76z" />
<glyph unicode="&#xbd;" horiz-adv-x="1798" d="M102 174l174 -174h1246l174 174v490l-140 139l140 139v490l-174 174h-1246l-174 -174v-490l140 -139l-140 -139v-490zM172 205v430l168 168l-168 170v430l133 133h1188l133 -133v-430l-168 -170l168 -168v-430l-133 -135h-1188zM252 238l86 -88h1122l86 88v364l-78 78 v-453h-1138v453l-78 -78v-364zM252 1006l78 -80v452h1138v-452l78 80v364l-86 86h-1122l-86 -86v-364zM410 307h979v377h-979v-377zM410 922h979v376h-979v-376zM414 764h970l-38 39l38 39h-970l39 -39zM479 377v237h840v-237h-840zM479 991v238h840v-238h-840z" />
<glyph unicode="&#xbe;" horiz-adv-x="1798" d="M102 0h1420l174 174v1258l-174 174h-1246l-174 -174v-644l174 -174h1043v-237h-1217v-377zM172 70v237h1217v377h-1084l-133 133v586l133 133h1188l133 -133v-1198l-133 -135h-1321zM252 150h1208l86 88v1132l-86 86h-1122l-86 -86v-520l86 -86h1130v-537h-1216v-77z M330 842v536h1138v-536h-1138zM410 922h979v376h-979v-376zM479 991v238h840v-238h-840z" />
<glyph unicode="&#xbf;" horiz-adv-x="1196" d="M102 -133l174 -174h818v377h-615v237h441l174 174v357h-377v-154h-441l-174 -174v-643zM172 -104v585l133 133h481v154h238v-258l-133 -133h-481v-377h614v-238h-719zM252 -72l86 -86h606v78h-614v537h526l88 88v143h-78v-153h-528l-86 -86v-521zM717 922h377v376h-377 v-376zM786 991v238h238v-238h-238zM866 1071h78v78h-78v-78z" />
<glyph unicode="&#xc0;" horiz-adv-x="1798" d="M102 0h377v614h840v-614h377v1432l-174 174h-1246l-174 -174v-1432zM172 70v1333l133 133h1188l133 -133v-1333h-237v614h-979v-614h-238zM252 150h78v614h1138v-614h78v1220l-86 86h-1122l-86 -86v-1220zM330 842v536h1138v-536h-1138zM410 922h979v376h-979v-376z M479 991v238h840v-238h-840zM659 1911l279 -283l203 203l-279 283zM758 1909l102 104l182 -182l-104 -105z" />
<glyph unicode="&#xc1;" horiz-adv-x="1798" d="M102 0h377v614h840v-614h377v1432l-174 174h-1246l-174 -174v-1432zM172 70v1333l133 133h1188l133 -133v-1333h-237v614h-979v-614h-238zM252 150h78v614h1138v-614h78v1220l-86 86h-1122l-86 -86v-1220zM330 842v536h1138v-536h-1138zM410 922h979v376h-979v-376z M479 991v238h840v-238h-840zM657 1831l203 -203l279 283l-203 203zM756 1831l180 182l104 -104l-182 -183z" />
<glyph unicode="&#xc2;" horiz-adv-x="1798" d="M102 0h377v614h840v-614h377v1432l-174 174h-1246l-174 -174v-1432zM172 70v1333l133 133h1188l133 -133v-1333h-237v614h-979v-614h-238zM252 150h78v614h1138v-614h78v1220l-86 86h-1122l-86 -86v-1220zM330 842v536h1138v-536h-1138zM410 922h979v376h-979v-376z M479 991v238h840v-238h-840zM545 1831l203 -203l153 154l154 -154l202 203l-264 266h-182zM643 1831l197 197h125l194 -197l-104 -105l-156 154l-151 -154z" />
<glyph unicode="&#xc3;" horiz-adv-x="1798" d="M102 0h377v614h840v-614h377v1432l-174 174h-1246l-174 -174v-1432zM172 70v1333l133 133h1188l133 -133v-1333h-237v614h-979v-614h-238zM252 150h78v614h1138v-614h78v1220l-86 86h-1122l-86 -86v-1220zM330 842v536h1138v-536h-1138zM410 922h979v376h-979v-376z M428 1909l268 -267h183l137 140l153 -154l203 203l-264 266h-182l-140 -141l-157 158zM479 991v238h840v-238h-840zM528 1911l101 102l157 -155l168 170h125l195 -197l-105 -105l-153 154l-166 -168h-125z" />
<glyph unicode="&#xc4;" horiz-adv-x="1798" d="M102 0h377v614h840v-614h377v1432l-174 174h-1246l-174 -174v-1432zM172 70v1333l133 133h1188l133 -133v-1333h-237v614h-979v-614h-238zM252 150h78v614h1138v-614h78v1220l-86 86h-1122l-86 -86v-1220zM330 842v536h1138v-536h-1138zM410 922h979v376h-979v-376z M414 1638h377v377h-377v-377zM479 991v238h840v-238h-840zM483 1708v238h238v-238h-238zM563 1788h78v78h-78v-78zM1012 1638h377v377h-377v-377zM1081 1708v238h238v-238h-238zM1161 1788h78v78h-78v-78z" />
<glyph unicode="&#xc5;" horiz-adv-x="1798" d="M102 0h377v614h840v-614h377v1432l-174 174h-1246l-174 -174v-1432zM172 70v1333l133 133h1188l133 -133v-1333h-237v614h-979v-614h-238zM252 150h78v614h1138v-614h78v1220l-86 86h-1122l-86 -86v-1220zM330 842v536h1138v-536h-1138zM410 922h979v376h-979v-376z M479 991v238h840v-238h-840zM547 1776l209 -136h301l213 136v413l-209 131h-301l-213 -131v-413zM616 1815v335l164 101h260l160 -101v-335l-164 -105h-260zM647 1815v313l154 102h227l154 -102v-313l-158 -99h-221zM696 1858l103 -68h215l106 68v247l-102 66h-215l-107 -66 v-247zM727 1860l98 -64h176l101 64v225l-98 65h-179l-98 -65v-225zM797 1898v150l49 33h137l49 -33v-150l-51 -32h-135z" />
<glyph unicode="&#xc6;" horiz-adv-x="3014" d="M102 0h377v614h840v-614h1593v377h-1216v237h1218v377h-1218v238h1216v377h-2636l-174 -174v-1432zM172 70v1333l133 133h2538v-238h-1217v-376h1219v-238h-1219v-377h1217v-237h-1454v614h-979v-614h-238zM252 150h78v614h1138v-614h1295v77h-1217v537h1219v78h-1219 v536h1217v78h-2425l-86 -86v-1220zM330 842v536h1138v-536h-1138zM410 922h979v376h-979v-376zM479 991v238h840v-238h-840z" />
<glyph unicode="&#xc7;" horiz-adv-x="1798" d="M102 174l174 -174h488v-301h377v301h555v377h-1217v852h1217v381l-1420 -4l-174 -174v-1258zM172 205v1198l133 133l1321 2v-240h-1216v-991h1216v-237h-555v-301h-237v301h-529zM252 238l86 -88h575v-302h78v302h555v77h-1216v1151h1216v80l-1208 -2l-86 -86v-1132z" />
<glyph unicode="&#xc8;" horiz-adv-x="1800" d="M102 174l174 -174h1420v377h-1217v237h1219v377h-1219v238h1217v377h-1420l-174 -174v-1258zM172 205v1198l133 133h1321v-238h-1216v-376h1218v-238h-1218v-377h1216v-237h-1321zM252 238l86 -88h1208v77h-1216v537h1218v78h-1218v536h1216v78h-1208l-86 -86v-1132z M719 1911l278 -283l203 203l-278 283zM817 1909l105 104l180 -182l-105 -105z" />
<glyph unicode="&#xc9;" horiz-adv-x="1800" d="M102 174l174 -174h1420v377h-1217v237h1219v377h-1219v238h1217v377h-1420l-174 -174v-1258zM172 205v1198l133 133h1321v-238h-1216v-376h1218v-238h-1218v-377h1216v-237h-1321zM252 238l86 -88h1208v77h-1216v537h1218v78h-1218v536h1216v78h-1208l-86 -86v-1132z M764 1831l203 -203l278 283l-203 203zM862 1831l180 182l105 -104l-180 -183z" />
<glyph unicode="&#xca;" horiz-adv-x="1800" d="M102 174l174 -174h1420v377h-1217v237h1219v377h-1219v238h1217v377h-1420l-174 -174v-1258zM172 205v1198l133 133h1321v-238h-1216v-376h1218v-238h-1218v-377h1216v-237h-1321zM252 238l86 -88h1208v77h-1216v537h1218v78h-1218v536h1216v78h-1208l-86 -86v-1132z M545 1831l203 -203l153 154l154 -154l202 203l-264 266h-182zM643 1831l197 197h125l194 -197l-104 -105l-156 154l-151 -154z" />
<glyph unicode="&#xcb;" horiz-adv-x="1800" d="M102 174l174 -174h1420v377h-1217v237h1219v377h-1219v238h1217v377h-1420l-174 -174v-1258zM172 205v1198l133 133h1321v-238h-1216v-376h1218v-238h-1218v-377h1216v-237h-1321zM252 238l86 -88h1208v77h-1216v537h1218v78h-1218v536h1216v78h-1208l-86 -86v-1132z M459 1638h377v377h-377v-377zM528 1708v238h238v-238h-238zM608 1788h78v78h-78v-78zM1057 1638h377v377h-377v-377zM1126 1708v238h238v-238h-238zM1206 1788h78v78h-78v-78z" />
<glyph unicode="&#xcc;" horiz-adv-x="610" d="M63 1911l279 -283l203 203l-279 283zM117 0h379v1606h-379v-1606zM162 1909l104 104l180 -182l-104 -105zM186 70v1466h240v-1466h-240zM266 150h78v1306h-78v-1306z" />
<glyph unicode="&#xcd;" horiz-adv-x="610" d="M61 1831l203 -203l279 283l-203 203zM113 0h379v1606h-379v-1606zM160 1831l182 182l102 -104l-180 -183zM182 70v1466h240v-1466h-240zM262 150h80v1306h-80v-1306z" />
<glyph unicode="&#xce;" horiz-adv-x="610" d="M-49 1831l203 -203l153 154l156 -154l201 203l-265 266h-182zM49 1831l197 197h125l194 -197l-104 -105l-154 154l-153 -154zM117 0h379v1606h-379v-1606zM186 70v1466h240v-1466h-240zM266 150h78v1306h-78v-1306z" />
<glyph unicode="&#xcf;" horiz-adv-x="581" d="M-104 1638h376v377h-376v-377zM-35 1708v238h238v-238h-238zM45 1788h78v78h-78v-78zM102 0h377v1606h-377v-1606zM172 70v1466h238v-1466h-238zM252 150h78v1306h-78v-1306zM311 1638h377v377h-377v-377zM381 1708v238h237v-238h-237zM461 1788h78v78h-78v-78z" />
<glyph unicode="&#xd0;" horiz-adv-x="1941" d="M39 616h207v-616h1419l174 174v1258l-174 174h-1419v-613h-207v-377zM109 686v238h206v612h1321l133 -133v-1198l-133 -135h-1321v616h-206zM188 766h207v-616h1209l86 88v1132l-86 86h-1209v-612h-207v-78zM473 227v539h516v78h-516v534h1139v-1151h-1139zM553 307h979 v991h-979v-374h516v-238h-516v-379zM623 377v239h516l2 377h-518v236h839v-852h-839z" />
<glyph unicode="&#xd1;" horiz-adv-x="1806" d="M102 0h377v1229h848v-1233h377v1436l-174 174h-1428v-1606zM172 70v1466h1329l133 -133v-1337h-237v1232h-987v-1228h-238zM252 150h78v1228h1147v-1233h77v1225l-86 86h-1216v-1306zM428 1909l268 -267h183l137 140l153 -154l203 203l-264 266h-182l-140 -141l-157 158z M528 1911l101 102l157 -155l168 170h125l195 -197l-105 -105l-153 154l-166 -168h-125z" />
<glyph unicode="&#xd2;" horiz-adv-x="1800" d="M102 174l174 -174h1248l174 174v1258l-174 174h-1248l-174 -174v-1258zM172 205v1198l133 133h1190l133 -133v-1198l-133 -135h-1190zM252 238l86 -88h1124l86 88v1132l-86 86h-1124l-86 -86v-1132zM330 227v1151h1140v-1151h-1140zM410 307h981v991h-981v-991zM479 377 v852h842v-852h-842zM659 1911l279 -283l203 203l-279 283zM758 1909l102 104l182 -182l-104 -105z" />
<glyph unicode="&#xd3;" horiz-adv-x="1800" d="M102 174l174 -174h1248l174 174v1258l-174 174h-1248l-174 -174v-1258zM172 205v1198l133 133h1190l133 -133v-1198l-133 -135h-1190zM252 238l86 -88h1124l86 88v1132l-86 86h-1124l-86 -86v-1132zM330 227v1151h1140v-1151h-1140zM410 307h981v991h-981v-991zM479 377 v852h842v-852h-842zM657 1831l203 -203l279 283l-203 203zM756 1831l180 182l104 -104l-182 -183z" />
<glyph unicode="&#xd4;" horiz-adv-x="1800" d="M102 174l174 -174l1248 -2l174 174v1258l-174 174l-1248 4l-174 -176v-1258zM172 205v1198l133 133l1190 -2l133 -133v-1198l-133 -133h-1190zM252 238l86 -88h1124l86 86v1132l-86 86l-1124 2l-86 -86v-1132zM330 227v1153l1140 -4v-1151zM410 307l981 -2v991l-981 4 v-993zM479 377v852h842v-852h-842zM545 1831l203 -203l153 154l154 -154l202 203l-264 266h-182zM643 1831l197 197h125l194 -197l-104 -105l-156 154l-151 -154z" />
<glyph unicode="&#xd5;" horiz-adv-x="1800" d="M102 174l174 -174h1248l174 174v1258l-174 174h-1248l-174 -174v-1258zM172 205v1198l133 133h1190l133 -133v-1198l-133 -135h-1190zM252 238l86 -88h1124l86 88v1132l-86 86h-1124l-86 -86v-1132zM330 227v1151h1140v-1151h-1140zM410 307h981v991h-981v-991zM428 1909 l268 -267h183l137 140l153 -154l203 203l-264 266h-182l-140 -141l-157 158zM479 377v852h842v-852h-842zM528 1911l101 102l157 -155l168 170h125l195 -197l-105 -105l-153 154l-166 -168h-125z" />
<glyph unicode="&#xd6;" horiz-adv-x="1800" d="M102 174l174 -174l1248 -2l174 174v1258l-174 174l-1248 4l-174 -176v-1258zM172 205v1198l133 133l1190 -2l133 -133v-1198l-133 -133h-1190zM252 238l86 -88h1124l86 86v1132l-86 86l-1124 2l-86 -86v-1132zM330 227v1153l1140 -4v-1151zM410 307l981 -2v991l-981 4 v-993zM414 1638h377v377h-377v-377zM479 377v852h842v-852h-842zM483 1708v238h238v-238h-238zM563 1788h78v78h-78v-78zM1012 1638h377v377h-377v-377zM1081 1708v238h238v-238h-238zM1161 1788h78v78h-78v-78z" />
<glyph unicode="&#xd7;" horiz-adv-x="1519" d="M59 1237l441 -440l-434 -435l268 -266l434 434l426 -428l266 267l-428 428l434 434l-266 266l-434 -434l-440 440zM158 1237l168 168l442 -440l432 434l168 -168l-434 -434l428 -428l-168 -166l-428 428l-432 -434l-168 165l432 437zM270 1237l443 -438l-434 -437l55 -53 l432 434l428 -428l55 54l-428 428l434 434l-55 55l-432 -434l-442 440z" />
<glyph unicode="&#xd8;" horiz-adv-x="1800" d="M102 174l174 -174h1248l174 174v1258l-174 174h-1248l-174 -174v-1258zM172 205v1198l133 133h1190l133 -133v-1198l-133 -135h-1190zM252 238l86 -88h1124l86 88v1132l-86 86h-1124l-86 -86v-1132zM330 227v1151h657l-229 -1151h-428zM410 307h282l199 991h-481v-991z M479 377v852h326l-170 -852h-156zM829 227l232 1151h409v-1151h-641zM928 307h463v991h-265zM1014 377l170 852h137v-852h-307z" />
<glyph unicode="&#xd9;" horiz-adv-x="1804" d="M102 174l174 -174h1252l174 174v1432h-377v-1229h-846v1229h-377v-1432zM172 205v1331h238v-1229h985v1229h237v-1331l-133 -135h-1194zM252 238l86 -88h1128l86 88v1218h-77v-1229h-1145v1229h-78v-1218zM659 1911l279 -283l203 203l-279 283zM758 1909l102 104 l182 -182l-104 -105z" />
<glyph unicode="&#xda;" horiz-adv-x="1804" d="M102 174l174 -174h1252l174 174v1432h-377v-1229h-846v1229h-377v-1432zM172 205v1331h238v-1229h985v1229h237v-1331l-133 -135h-1194zM252 238l86 -88h1128l86 88v1218h-77v-1229h-1145v1229h-78v-1218zM657 1831l203 -203l279 283l-203 203zM756 1831l180 182 l104 -104l-182 -183z" />
<glyph unicode="&#xdb;" horiz-adv-x="1804" d="M102 174l174 -174h1252l174 174v1432h-377v-1229h-846v1229h-377v-1432zM172 205v1331h238v-1229h985v1229h237v-1331l-133 -135h-1194zM252 238l86 -88h1128l86 88v1218h-77v-1229h-1145v1229h-78v-1218zM545 1831l203 -203l153 154l154 -154l202 203l-264 266h-182z M643 1831l197 197h125l194 -197l-104 -105l-156 154l-151 -154z" />
<glyph unicode="&#xdc;" horiz-adv-x="1804" d="M102 174l174 -174h1252l174 174v1432h-377v-1229h-846v1229h-377v-1432zM172 205v1331h238v-1229h985v1229h237v-1331l-133 -135h-1194zM252 238l86 -88h1128l86 88v1218h-77v-1229h-1145v1229h-78v-1218zM414 1638h377v377h-377v-377zM483 1708v238h238v-238h-238z M563 1788h78v78h-78v-78zM1012 1638h377v377h-377v-377zM1081 1708v238h238v-238h-238zM1161 1788h78v78h-78v-78z" />
<glyph unicode="&#xdd;" horiz-adv-x="1794" d="M102 788l174 -174h441v-614h377v614h424l174 174v818h-377v-615h-836v615h-377v-818zM172 817v719h238v-614h974v614h238v-719l-133 -133h-465v-614h-238v614h-481zM252 850l86 -86h528v-614h78v614h510l88 86v606h-78v-614h-1134v614h-78v-606zM662 1823l202 -203 l279 283l-205 200zM760 1825l180 180l104 -104l-182 -183z" />
<glyph unicode="&#xde;" horiz-adv-x="1800" d="M102 0h377v307h1041l174 174v643l-174 174h-1041v308h-377v-1606zM172 70v1466h238v-307h1081l133 -133v-586l-133 -133h-1081v-307h-238zM252 150h78v307h1126l88 88v518l-88 86h-1126v307h-78v-1306zM330 535v536h1136v-536h-1136zM410 614h976v377h-976v-377zM479 684 v238h838v-238h-838z" />
<glyph unicode="&#xdf;" horiz-adv-x="2732" d="M102 0h1016l174 174v643l-174 174h-639v238h813v377h-1016l-174 -174v-644l174 -174h639v-237h-813v-377zM172 70v237h813v377h-680l-133 133v586l133 133h918v-238h-813v-376h680l133 -134v-583l-133 -135h-918zM252 150h805l86 88v518l-86 86h-727v536h813v78h-805 l-86 -86v-520l86 -86h727v-537h-813v-77zM1438 0h1016l174 174v643l-174 174h-639v238h813v377h-1016l-174 -174v-644l174 -174h639v-237h-813v-377zM1507 70v237h813v377h-680l-133 133v586l133 133h918v-238h-813v-376h680l133 -134v-583l-133 -135h-918zM1587 150h803 l88 88v518l-88 86h-725v536h813v78h-805l-86 -86v-520l86 -86h727v-537h-813v-77z" />
<glyph unicode="&#xe0;" d="M102 0h377v614h441v-614h376v1432l-174 174h-846l-174 -174v-1432zM172 70v1333l133 133h789l133 -133v-1333h-238v614h-579v-614h-238zM252 150h78v614h739v-614h78v1220l-86 86h-723l-86 -86v-1220zM330 842v536h739v-536h-739zM410 922h579v376h-579v-376zM459 1911 l276 -283l205 203l-278 283zM479 991v238h441v-238h-441zM557 1909l105 104l180 -182l-105 -105z" />
<glyph unicode="&#xe1;" d="M102 0h377v614h441v-614h376v1432l-174 174h-846l-174 -174v-1432zM172 70v1333l133 133h789l133 -133v-1333h-238v614h-579v-614h-238zM252 150h78v614h739v-614h78v1220l-86 86h-723l-86 -86v-1220zM330 842v536h739v-536h-739zM410 922h579v376h-579v-376zM459 1831 l203 -203l278 283l-205 203zM479 991v238h441v-238h-441zM557 1831l180 182l105 -104l-180 -183z" />
<glyph unicode="&#xe2;" d="M102 0h377v614h441v-614h376v1432l-174 174h-846l-174 -174v-1432zM172 70v1333l133 133h789l133 -133v-1333h-238v614h-579v-614h-238zM252 150h78v614h739v-614h78v1220l-86 86h-723l-86 -86v-1220zM330 842v536h739v-536h-739zM342 1831l205 -203l153 154l154 -154 l203 203l-264 266h-183zM410 922h579v376h-579v-376zM442 1831l197 197h125l194 -197l-104 -105l-154 154l-153 -154zM479 991v238h441v-238h-441z" />
<glyph unicode="&#xe3;" d="M102 0h377v614h441v-614h376v1432l-174 174h-846l-174 -174v-1432zM172 70v1333l133 133h789l133 -133v-1333h-238v614h-579v-614h-238zM229 1909l267 -267h182l137 140l154 -154l202 203l-264 266h-182l-139 -141l-160 158zM252 150h78v614h739v-614h78v1220l-86 86 h-723l-86 -86v-1220zM328 1911l100 102l158 -155l168 170h125l192 -197l-102 -105l-156 154l-164 -168h-125zM330 842v536h739v-536h-739zM410 922h579v376h-579v-376zM479 991v238h441v-238h-441z" />
<glyph unicode="&#xe4;" d="M102 0h377v614h441v-614h376v1432l-174 174h-846l-174 -174v-1432zM172 70v1333l133 133h789l133 -133v-1333h-238v614h-579v-614h-238zM213 1638h377v377h-377v-377zM252 150h78v614h739v-614h78v1220l-86 86h-723l-86 -86v-1220zM283 1708v238h237v-238h-237zM330 842 v536h739v-536h-739zM362 1788h78v78h-78v-78zM410 922h579v376h-579v-376zM479 991v238h441v-238h-441zM811 1638h377v377h-377v-377zM881 1708v238h237v-238h-237zM961 1788h77v78h-77v-78z" />
<glyph unicode="&#xe5;" d="M102 0h377v614h441v-614h376v1432l-176 174h-844l-174 -174v-1432zM172 70v1333l133 133h787l135 -133v-1333h-238v614h-579v-614h-238zM252 150h78v614h739v-614h78v1218l-88 88h-721l-86 -86v-1220zM330 842v536h739v-536h-739zM338 1776l209 -136h301l213 136v413 l-209 131h-301l-213 -131v-413zM408 1815v335l163 101h260l160 -101v-335l-164 -105h-260zM410 922h579v376h-579v-376zM438 1815v313l154 102h227l154 -102v-313l-158 -99h-221zM479 991v238h441v-238h-441zM487 1858l103 -68h215l106 68v247l-102 66h-215l-107 -66v-247z M518 1860l98 -64h177l100 64v225l-98 65h-179l-98 -65v-225zM588 1898v150l49 33h137l49 -33v-150l-51 -32h-135z" />
<glyph unicode="&#xe6;" horiz-adv-x="2220" d="M102 0h377v614h441v-614l1194 2v377h-814v237h816v377h-816v238h814v379l-1838 -4l-174 -174v-1432zM172 70v1333l133 133l1739 2v-238h-813v-376h815v-238h-815v-377h813v-237h-1055v612h-579v-614h-238zM252 150h78v614h739v-612h895v77h-813v537h815v78h-815v536h813 v78l-1626 -2l-86 -86v-1220zM330 842v536h739v-536h-739zM410 922h579v376h-579v-376zM479 991v238h441v-238h-441z" />
<glyph unicode="&#xe7;" d="M102 174l174 -174h297v-309h377v309h346v377h-817v852h817v377h-1020l-174 -174v-1258zM172 205v1198l133 133h922v-238h-817v-991h817v-237h-346v-310h-238v310h-338zM252 238l86 -88h385v-310h78v310h346v77h-817v1151h817v78h-809l-86 -86v-1132z" />
<glyph unicode="&#xe8;" horiz-adv-x="1400" d="M102 174l174 -174h1016v377h-813v237h815v377h-815v238h813v377h-1016l-174 -174v-1258zM172 205v1198l133 133h918v-238h-813v-376h815v-238h-815v-377h813v-237h-918zM252 238l86 -88h805v77h-813v537h815v78h-815v536h813v78h-805l-86 -86v-1132zM535 1911l276 -283 l205 203l-279 283zM633 1909l102 104l183 -182l-105 -105z" />
<glyph unicode="&#xe9;" horiz-adv-x="1400" d="M102 174l174 -174h1016v377h-813v237h815v377h-815v238h813v377h-1016l-174 -174v-1258zM172 205v1198l133 133h918v-238h-813v-376h815v-238h-815v-377h813v-237h-918zM252 238l86 -88h805v77h-813v537h815v78h-815v536h813v78h-805l-86 -86v-1132zM551 1831l203 -203 l278 283l-203 203zM649 1831l180 182l105 -104l-180 -183z" />
<glyph unicode="&#xea;" horiz-adv-x="1400" d="M102 174l174 -174h1016v377h-813v237h815v377h-815v238h813v377h-1016l-174 -174v-1258zM172 205v1198l133 133h918v-238h-813v-376h815v-238h-815v-377h813v-237h-918zM252 238l86 -88h805v77h-813v537h815v78h-815v536h813v78h-805l-86 -86v-1132zM342 1831l205 -203 l153 154l154 -154l203 203l-264 266h-183zM442 1831l197 197h125l194 -197l-104 -105l-154 154l-153 -154z" />
<glyph unicode="&#xeb;" horiz-adv-x="1400" d="M102 174l174 -174h1016v377h-813v237h815v377h-815v238h813v377h-1016l-174 -174v-1258zM172 205v1198l133 133h918v-238h-813v-376h815v-238h-815v-377h813v-237h-918zM213 1638h377v377h-377v-377zM252 238l86 -88h805v77h-813v537h815v78h-815v536h813v78h-805 l-86 -86v-1132zM283 1708v238h237v-238h-237zM362 1788h78v78h-78v-78zM811 1638h377v377h-377v-377zM881 1708v238h237v-238h-237zM961 1788h77v78h-77v-78z" />
<glyph unicode="&#xec;" horiz-adv-x="610" d="M63 1911l279 -283l203 203l-279 283zM117 0h379v1606h-379v-1606zM162 1909l104 104l180 -182l-104 -105zM186 70v1466h240v-1466h-240zM266 150h78v1306h-78v-1306z" />
<glyph unicode="&#xed;" horiz-adv-x="610" d="M61 1831l203 -203l279 283l-203 203zM113 0h379v1606h-379v-1606zM160 1831l182 182l102 -104l-180 -183zM182 70v1466h240v-1466h-240zM262 150h80v1306h-80v-1306z" />
<glyph unicode="&#xee;" horiz-adv-x="610" d="M-49 1831l203 -203l153 154l156 -154l201 203l-265 266h-182zM49 1831l197 197h125l194 -197l-104 -105l-154 154l-153 -154zM117 0h379v1606h-379v-1606zM186 70v1466h240v-1466h-240zM266 150h78v1306h-78v-1306z" />
<glyph unicode="&#xef;" horiz-adv-x="581" d="M-104 1638h376v377h-376v-377zM-35 1708v238h238v-238h-238zM45 1788h78v78h-78v-78zM102 0h377v1606h-377v-1606zM172 70v1466h238v-1466h-238zM252 150h78v1306h-78v-1306zM311 1638h377v377h-377v-377zM381 1708v238h237v-238h-237zM461 1788h78v78h-78v-78z" />
<glyph unicode="&#xf0;" d="M39 616h207v-616h878l174 174v1258l-174 174h-878v-613h-207v-377zM109 686v238h206v612h781l133 -133v-1198l-133 -135h-781v616h-206zM188 766h207v-616h668l86 88v1132l-86 86h-668v-612h-207v-78zM473 227v539h215v78h-215v534h598v-1151h-598zM553 307h438v991h-438 v-374h215v-238h-215v-379zM623 377v239h215l2 377h-217v236h299v-852h-299z" />
<glyph unicode="&#xf1;" d="M102 0h377v1229h443v-1229l376 -2v1434l-174 174h-1022v-1606zM172 70v1466h924l133 -133v-1333h-238v1228h-581v-1228h-238zM229 1909l267 -267h182l137 140l154 -154l202 203l-264 266h-182l-139 -141l-160 158zM252 150h78v1228h741v-1228h78v1220l-86 86h-811v-1306z M328 1911l100 102l158 -155l168 170h125l192 -197l-102 -105l-156 154l-164 -168h-125z" />
<glyph unicode="&#xf2;" d="M102 174l174 -174h850l174 174v1258l-174 174h-850l-174 -174v-1258zM172 205v1198l133 133h793l133 -133v-1198l-133 -135h-793zM252 238l86 -88h727l86 88v1132l-86 86h-727l-86 -86v-1132zM330 227v1151h743v-1151h-743zM410 307h583v991h-583v-991zM459 1911 l276 -283l205 203l-278 283zM479 377v852h445v-852h-445zM557 1909l105 104l180 -182l-105 -105z" />
<glyph unicode="&#xf3;" d="M102 174l174 -174h850l174 174v1258l-174 174h-850l-174 -174v-1258zM172 205v1198l133 133h793l133 -133v-1198l-133 -135h-793zM252 238l86 -88h727l86 88v1132l-86 86h-727l-86 -86v-1132zM330 227v1151h743v-1151h-743zM410 307h583v991h-583v-991zM459 1831 l203 -203l278 283l-205 203zM479 377v852h445v-852h-445zM557 1831l180 182l105 -104l-180 -183z" />
<glyph unicode="&#xf4;" d="M102 174l174 -174h850l174 174v1258l-174 174h-850l-174 -174v-1258zM172 205v1198l133 133h793l133 -133v-1198l-133 -135h-793zM252 238l86 -88h727l86 88v1132l-86 86h-727l-86 -86v-1132zM330 227v1151h743v-1151h-743zM342 1831l205 -203l153 154l154 -154l203 203 l-264 266h-183zM410 307h583v991h-583v-991zM442 1831l197 197h125l194 -197l-104 -105l-154 154l-153 -154zM479 377v852h445v-852h-445z" />
<glyph unicode="&#xf5;" d="M102 174l174 -174h850l174 174v1258l-174 174h-850l-174 -174v-1258zM172 205v1198l133 133h793l133 -133v-1198l-133 -135h-793zM229 1909l267 -267h182l137 140l154 -154l202 203l-264 266h-182l-139 -141l-160 158zM252 238l86 -88h727l86 88v1132l-86 86h-727 l-86 -86v-1132zM328 1911l100 102l158 -155l168 170h125l192 -197l-102 -105l-156 154l-164 -168h-125zM330 227v1151h743v-1151h-743zM410 307h583v991h-583v-991zM479 377v852h445v-852h-445z" />
<glyph unicode="&#xf6;" d="M102 174l174 -174h850l174 174v1258l-174 174h-850l-174 -174v-1258zM172 205v1198l133 133h793l133 -133v-1198l-133 -135h-793zM213 1638h377v377h-377v-377zM252 238l86 -88h727l86 88v1132l-86 86h-727l-86 -86v-1132zM283 1708v238h237v-238h-237zM330 227v1151h743 v-1151h-743zM362 1788h78v78h-78v-78zM410 307h583v991h-583v-991zM479 377v852h445v-852h-445zM811 1638h377v377h-377v-377zM881 1708v238h237v-238h-237zM961 1788h77v78h-77v-78z" />
<glyph unicode="&#xf7;" horiz-adv-x="1710" d="M53 614h1606v377h-1606v-377zM123 684v238h1466v-238h-1466zM203 764h1306v78h-1306v-78zM664 102h376v377h-376v-377zM664 1128h376v377h-376v-377zM733 172v238h238v-238h-238zM733 1198v238h238v-238h-238zM813 252h78v78h-78v-78zM813 1278h78v78h-78v-78z" />
<glyph unicode="&#xf8;" d="M102 174l174 -174h850l174 174v1258l-174 174h-850l-174 -174v-1258zM172 205v1198l133 133h793l133 -133v-1198l-133 -135h-793zM252 238l86 -88h727l86 88v1132l-86 86h-727l-86 -86v-1132zM330 227v1151h448l-229 -1151h-219zM410 307h73l199 991h-272v-991zM479 647 v582h117zM621 227l231 1151h221v-1151h-452zM719 307h274v991h-75zM805 377l119 598v-598h-119z" />
<glyph unicode="&#xf9;" horiz-adv-x="1400" d="M102 174l174 -174h852l175 174v1432h-377v-1229h-447v1229h-377v-1432zM172 205v1331h238v-1229h585v1229h238v-1331l-133 -135h-795zM252 238l86 -88h729l86 88v1218h-78v-1229h-745v1229h-78v-1218zM459 1911l276 -283l205 203l-278 283zM557 1909l105 104l180 -182 l-105 -105z" />
<glyph unicode="&#xfa;" horiz-adv-x="1400" d="M102 174l174 -174h852l175 174v1432h-377v-1229h-447v1229h-377v-1432zM172 205v1331h238v-1229h585v1229h238v-1331l-133 -135h-795zM252 238l86 -88h729l86 88v1218h-78v-1229h-745v1229h-78v-1218zM459 1831l203 -203l278 283l-205 203zM557 1831l180 182l105 -104 l-180 -183z" />
<glyph unicode="&#xfb;" horiz-adv-x="1400" d="M102 174l174 -174h852l175 174v1432h-377v-1229h-447v1229h-377v-1432zM172 205v1331h238v-1229h585v1229h238v-1331l-133 -135h-795zM252 238l86 -88h729l86 88v1218h-78v-1229h-745v1229h-78v-1218zM342 1831l205 -203l153 154l154 -154l203 203l-264 266h-183z M442 1831l197 197h125l194 -197l-104 -105l-154 154l-153 -154z" />
<glyph unicode="&#xfc;" horiz-adv-x="1400" d="M102 174l174 -174h852l175 174v1432h-377v-1229h-447v1229h-377v-1432zM172 205v1331h238v-1229h585v1229h238v-1331l-133 -135h-795zM213 1638h377v377h-377v-377zM252 238l86 -88h729l86 88v1218h-78v-1229h-745v1229h-78v-1218zM283 1708v238h237v-238h-237zM362 1788 h78v78h-78v-78zM811 1638h377v377h-377v-377zM881 1708v238h237v-238h-237zM961 1788h77v78h-77v-78z" />
<glyph unicode="&#xfd;" d="M102 788l174 -174h234v-614h377v614h243l175 174v818h-377v-615h-449v615h-377v-818zM172 817v719h238v-614h587v614h238v-719l-133 -133h-285v-614h-237v614h-275zM252 850l86 -86h321v-614h78v614h330l88 86v606h-78v-614h-747v614h-78v-606zM459 1831l203 -203 l278 283l-205 203zM557 1831l180 182l105 -104l-180 -183z" />
<glyph unicode="&#xfe;" d="M102 0h377v307h651l175 174v643l-175 174h-651v308h-377v-1606zM172 70v1466h238v-307h692l133 -133v-586l-133 -133h-692v-307h-238zM252 150h78v307h737l88 88v518l-88 86h-737v307h-78v-1306zM330 535v536h747v-536h-747zM410 614h587v377h-587v-377zM479 684v238h449 v-238h-449z" />
<glyph unicode="&#xff;" d="M102 788l174 -174h234v-614h377v614h243l175 174v818h-377v-615h-449v615h-377v-818zM172 817v719h238v-614h587v614h238v-719l-133 -133h-285v-614h-237v614h-275zM213 1638h377v377h-377v-377zM252 850l86 -86h321v-614h78v614h330l88 86v606h-78v-614h-747v614h-78 v-606zM283 1708v238h237v-238h-237zM362 1788h78v78h-78v-78zM811 1638h377v377h-377v-377zM881 1708v238h237v-238h-237zM961 1788h77v78h-77v-78z" />
<glyph unicode="&#x152;" horiz-adv-x="3014" d="M102 174l174 -174l2636 -2v377h-1214v237h1216v377h-1216v238h1214v377l-2636 4l-174 -176v-1258zM172 205v1198l133 133l2538 -2v-238h-1215v-376h1217v-238h-1217v-377h1215v-235h-2538zM252 238l86 -88h2425v75h-1215v537h1217v78h-1217v536h1215v78l-2425 2l-86 -86 v-1132zM330 227v1153l1138 -6v-1151zM410 307l979 -4v991l-979 6v-993zM479 377v852l840 -2v-852z" />
<glyph unicode="&#x153;" horiz-adv-x="2217" d="M102 174l174 -174h1840v377h-813v237h815v377h-815v238h813v377h-1840l-174 -174v-1258zM172 205v1198l133 133h1741v-238h-813v-376h815v-238h-815v-377h813v-237h-1741zM252 238l86 -88h1628v77h-813v537h815v78h-815v536h813v78h-1628l-86 -86v-1132zM330 227v1151 h743v-1151h-743zM410 307h583v991h-583v-991zM479 377v852h445v-852h-445z" />
<glyph unicode="&#x178;" horiz-adv-x="1794" d="M102 788l174 -174h441v-614h377v614h424l174 174v818h-377v-615h-836v615h-377v-818zM172 817v719h238v-614h974v614h238v-719l-133 -133h-465v-614h-238v614h-481zM252 850l86 -86h528v-614h78v614h510l88 86v606h-78v-614h-1134v614h-78v-606zM414 1638h377v377h-377 v-377zM483 1708v238h238v-238h-238zM563 1788h78v78h-78v-78zM1012 1638h377v377h-377v-377zM1081 1708v238h238v-238h-238zM1161 1788h78v78h-78v-78z" />
<glyph unicode="&#x2c6;" horiz-adv-x="1832" d="M559 1831l205 -203l151 154l154 -154l205 203l-266 266h-183zM657 1831l197 197h125l195 -197l-105 -105l-154 154l-153 -154z" />
<glyph unicode="&#x2dc;" horiz-adv-x="1429" d="M244 1909l266 -267h182l137 140l154 -154l203 203l-264 266h-183l-139 -141l-158 158zM342 1911l100 102l158 -155l168 170h125l194 -197l-104 -105l-154 154l-165 -168h-125z" />
<glyph unicode="&#x2000;" horiz-adv-x="1159" />
<glyph unicode="&#x2001;" horiz-adv-x="2320" />
<glyph unicode="&#x2002;" horiz-adv-x="1159" />
<glyph unicode="&#x2003;" horiz-adv-x="2320" />
<glyph unicode="&#x2004;" horiz-adv-x="772" />
<glyph unicode="&#x2005;" horiz-adv-x="579" />
<glyph unicode="&#x2006;" horiz-adv-x="385" />
<glyph unicode="&#x2007;" horiz-adv-x="385" />
<glyph unicode="&#x2008;" horiz-adv-x="288" />
<glyph unicode="&#x2009;" horiz-adv-x="462" />
<glyph unicode="&#x200a;" horiz-adv-x="126" />
<glyph unicode="&#x2010;" horiz-adv-x="794" d="M53 614h692v377h-692v-377zM123 684v238h553v-238h-553zM203 764h393v78h-393v-78z" />
<glyph unicode="&#x2011;" horiz-adv-x="794" d="M53 614h692v377h-692v-377zM123 684v238h553v-238h-553zM203 764h393v78h-393v-78z" />
<glyph unicode="&#x2012;" horiz-adv-x="794" d="M53 614h692v377h-692v-377zM123 684v238h553v-238h-553zM203 764h393v78h-393v-78z" />
<glyph unicode="&#x2013;" horiz-adv-x="1503" d="M102 614h1299l2 377h-1301v-377zM172 684v238h1159v-238h-1159zM252 764h999v78h-999v-78z" />
<glyph unicode="&#x2014;" horiz-adv-x="1607" d="M102 614h1405l2 377h-1407v-377zM172 684v238h1268l-2 -238h-1266zM252 764h1106l2 78h-1108v-78z" />
<glyph unicode="&#x2018;" horiz-adv-x="581" d="M102 1126h377v480h-377v-480zM172 1196v340h238v-340h-238zM252 1276h78v180h-78v-180z" />
<glyph unicode="&#x2019;" horiz-adv-x="581" d="M102 1126h377v480h-377v-480zM172 1196v340h238v-340h-238zM252 1276h78v180h-78v-180z" />
<glyph unicode="&#x201a;" horiz-adv-x="581" d="M102 -207h377v479h-377v-479zM172 -137v340h238v-340h-238zM252 -57h78v180h-78v-180z" />
<glyph unicode="&#x201c;" horiz-adv-x="989" d="M102 1126h377v480h-377v-480zM172 1196v340h238v-340h-238zM252 1276h78v180h-78v-180zM512 1126h377v480h-377v-480zM582 1196v340h237v-340h-237zM662 1276h77v180h-77v-180z" />
<glyph unicode="&#x201d;" horiz-adv-x="989" d="M102 1126h377v480h-377v-480zM172 1196v340h238v-340h-238zM252 1276h78v180h-78v-180zM512 1126h377v480h-377v-480zM582 1196v340h237v-340h-237zM662 1276h77v180h-77v-180z" />
<glyph unicode="&#x201e;" horiz-adv-x="989" d="M102 -207h377v479h-377v-479zM172 -137v340h238v-340h-238zM252 -57h78v180h-78v-180zM512 -207h377v479h-377v-479zM582 -137v340h237v-340h-237zM662 -57h77v180h-77v-180z" />
<glyph unicode="&#x2022;" horiz-adv-x="991" d="M102 635l174 -117h431l176 117v446l-174 117h-430l-177 -117v-446zM172 672v372l127 84h389l125 -84v-372l-127 -84h-389zM252 715l70 -47h340l71 47v286l-69 48h-340l-72 -48v-286z" />
<glyph unicode="&#x2026;" horiz-adv-x="1607" d="M102 0h377v377h-377v-377zM172 70v237h238v-237h-238zM252 150h78v77h-78v-77zM623 0h376v377h-376v-377zM692 70v237h238v-237h-238zM772 150h78v77h-78v-77zM1133 -2h376v377h-376v-377zM1202 68v237h238v-237h-238zM1282 147h78v78h-78v-78z" />
<glyph unicode="&#x202f;" horiz-adv-x="462" />
<glyph unicode="&#x2039;" horiz-adv-x="776" d="M74 686l358 -360l268 266l-217 217l217 217l-266 266l-360 -360v-246zM143 717v186l291 291l166 -168l-215 -217l215 -217l-166 -168zM223 750l211 -211l53 53l-217 217l217 217l-53 55l-211 -211v-120z" />
<glyph unicode="&#x203a;" horiz-adv-x="776" d="M76 592l266 -266l360 360v246l-360 360l-266 -266l217 -217zM174 592l217 217l-217 217l168 168l291 -291v-186l-291 -293zM289 592l53 -53l211 211v120l-211 211l-53 -55l217 -217z" />
<glyph unicode="&#x205f;" horiz-adv-x="579" />
<glyph unicode="&#x2122;" horiz-adv-x="2152" d="M53 1229h211v-615h377v615h199v381l-787 -4v-377zM123 1298v238l647 2v-240h-199v-614h-237v614h-211zM203 1378h211v-614h78v614h198v80l-487 -2v-78zM874 614h377v615h37v-615h377v615h37v-615h377v818l-174 174h-1031v-992zM944 684v852h932l133 -133v-719h-237v614 h-177v-614h-237v614h-176v-614h-238zM1024 764h78v614h336v-614h78v614h335v-614h78v606l-88 86h-817v-692z" />
<glyph unicode="&#xe000;" horiz-adv-x="1605" d="M0 1605h1605v-1605h-1605v1605z" />
<glyph unicode="&#xfb01;" horiz-adv-x="1982" d="M1503 0h377v1606h-377v-1606zM1573 70v1466h238v-1466h-238zM1653 150h78v1306h-78v-1306zM102 0h377v614h811v377h-811v238h809v381l-1012 -4l-174 -174v-1432zM172 70v1333l133 133l914 2v-240h-809v-376h811v-238h-811v-614h-238zM252 150h78v614h811v78h-811v536h809 v80l-801 -2l-86 -86v-1220z" />
<glyph unicode="&#xfb02;" horiz-adv-x="2390" d="M1503 174l174 -174h603v377h-400v1229h-377v-1432zM1573 205v1331h238v-1229h399v-237h-504zM1653 238l86 -88h391v77h-399v1229h-78v-1218zM102 0h377v614h811v377h-811v238h809v381l-1012 -4l-174 -174v-1432zM172 70v1333l133 133l914 2v-240h-809v-376h811v-238h-811 v-614h-238zM252 150h78v614h811v78h-811v536h809v80l-801 -2l-86 -86v-1220z" />
<glyph unicode="&#xfb03;" horiz-adv-x="3383" d="M2904 0h377v1606h-377v-1606zM2974 70v1466h238v-1466h-238zM3054 150h78v1306h-78v-1306zM1503 0h377v614h811v377h-811v238h809v381l-1012 -4l-174 -174v-1432zM1573 70v1333l133 133l914 2v-240h-809v-376h811v-238h-811v-614h-238zM1653 150h78v614h811v78h-811v536 h809v80l-801 -2l-86 -86v-1220zM102 0h377v614h811v377h-811v238h809v381l-1012 -4l-174 -174v-1432zM172 70v1333l133 133l914 2v-240h-809v-376h811v-238h-811v-614h-238zM252 150h78v614h811v78h-811v536h809v80l-801 -2l-86 -86v-1220z" />
<glyph unicode="&#xfb04;" horiz-adv-x="3790" d="M2904 174l174 -174h603v377h-400v1229h-377v-1432zM2974 205v1331h238v-1229h399v-237h-504zM3054 238l86 -88h391v77h-399v1229h-78v-1218zM1503 0h377v614h811v377h-811v238h809v381l-1012 -4l-174 -174v-1432zM1573 70v1333l133 133l914 2v-240h-809v-376h811v-238 h-811v-614h-238zM1653 150h78v614h811v78h-811v536h809v80l-801 -2l-86 -86v-1220zM102 0h377v614h811v377h-811v238h809v381l-1012 -4l-174 -174v-1432zM172 70v1333l133 133l914 2v-240h-809v-376h811v-238h-811v-614h-238zM252 150h78v614h811v78h-811v536h809v80 l-801 -2l-86 -86v-1220z" />
</font>
</defs>
</svg>
